<svg xmlns="http://www.w3.org/2000/svg" width="174.14" height="54.521" viewBox="0 0 174.14 54.521">
  <g id="Group_2235" data-name="Group 2235" transform="translate(-40.509 -28.923)">
    <g id="Group_2231" data-name="Group 2231" transform="translate(134.63 48.688)">
      <path id="Path_1191" data-name="Path 1191" d="M119.107,45.692H123V57.3h6.98v3.354H119.107Z" transform="translate(-119.107 -45.376)" fill="#fff"/>
      <path id="Path_1192" data-name="Path 1192" d="M128.751,45.692h11.925v3.122h-8.027v2.62h7.335V54.45h-7.335V57.3h8.236v3.354H128.751Z" transform="translate(-117.202 -45.376)" fill="#fff"/>
      <path id="Path_1193" data-name="Path 1193" d="M153.594,60.708H151.08l-.231-1.635a5.1,5.1,0,0,1-4.171,1.948c-4.527,0-7.462-3.457-7.462-7.8s2.935-7.8,7.462-7.8c3.1,0,6.414,1.656,6.769,5.408h-3.9c-.126-1.278-1.383-2.054-2.955-2.054-2.515,0-3.479,2.221-3.479,4.444s.964,4.442,3.479,4.442c1.928,0,3.227-.9,3.438-2.262h-2.726V52.512h6.288Z" transform="translate(-115.136 -45.428)" fill="#fff"/>
      <path id="Path_1194" data-name="Path 1194" d="M159.161,45.428c4.715,0,7.377,3.46,7.377,7.8s-2.662,7.8-7.377,7.8-7.378-3.457-7.378-7.8S154.445,45.428,159.161,45.428Zm0,12.24c2.515,0,3.479-2.22,3.479-4.442s-.964-4.444-3.479-4.444-3.48,2.221-3.48,4.444S156.645,57.668,159.161,57.668Z" transform="translate(-112.654 -45.428)" fill="#fff"/>
      <path id="Path_1195" data-name="Path 1195" d="M119.457,61.694h3.9V73.3h6.979v3.354H119.457Z" transform="translate(-119.038 -42.216)" fill="#fff"/>
      <path id="Path_1196" data-name="Path 1196" d="M129.1,61.694h11.926v3.122H133v2.62h7.335v3.017H133V73.3h8.236v3.354H129.1Z" transform="translate(-117.133 -42.216)" fill="#fff"/>
      <path id="Path_1197" data-name="Path 1197" d="M144.357,61.694h3.961l5.6,14.964h-4.065l-.922-2.682h-5.219l-.944,2.682h-4Zm.251,9.388H148l-1.655-5.239h-.042Z" transform="translate(-115.225 -42.216)" fill="#fff"/>
      <path id="Path_1198" data-name="Path 1198" d="M165.214,76.71H162.7l-.231-1.635a5.1,5.1,0,0,1-4.17,1.948c-4.528,0-7.462-3.457-7.462-7.8s2.934-7.8,7.462-7.8c3.1,0,6.413,1.656,6.769,5.408h-3.9c-.126-1.278-1.383-2.054-2.954-2.054-2.515,0-3.48,2.221-3.48,4.444s.965,4.442,3.48,4.442c1.928,0,3.227-.9,3.437-2.262h-2.724V68.514h6.287Z" transform="translate(-112.84 -42.268)" fill="#fff"/>
      <path id="Path_1199" data-name="Path 1199" d="M176.825,70.474c0,4.339-1.991,6.5-6.518,6.5s-6.518-2.159-6.518-6.5v-8.78h3.9v9.011c0,1.927.713,2.912,2.62,2.912s2.62-.986,2.62-2.912V61.694h3.9Z" transform="translate(-110.282 -42.216)" fill="#fff"/>
      <path id="Path_1200" data-name="Path 1200" d="M175.8,61.694h11.926v3.122h-8.028v2.62h7.336v3.017h-7.336V73.3h8.238v3.354H175.8Z" transform="translate(-107.911 -42.216)" fill="#fff"/>
    </g>
    <path id="Path_1201" data-name="Path 1201" d="M165.1,46.285a1.335,1.335,0,0,1,0,2.67,1.335,1.335,0,1,1,0-2.67Zm0,2.505a1.169,1.169,0,1,0-1.169-1.172A1.164,1.164,0,0,0,165.1,48.79Zm-.517-1.855c.066,0,.075-.008.211-.019s.192-.016.248-.016c.438,0,.655.17.655.5a.364.364,0,0,1-.257.381l-.02.007a.067.067,0,0,1,.026.025,3.925,3.925,0,0,1,.329.485h-.5c-.1-.19-.133-.243-.263-.459v.459h-.427Zm.479.641c.12,0,.186-.056.186-.164s-.061-.16-.181-.16a.224.224,0,0,0-.056,0v.315A.188.188,0,0,0,165.06,47.576Z" transform="translate(24.342 3.429)" fill="#fff"/>
    <g id="Group_2233" data-name="Group 2233" transform="translate(134.671 28.923)">
      <path id="Path_1202" data-name="Path 1202" d="M122.707,29.173h10.6l-1,4.08h-5.079l-.5,2.144h5.3l-.923,3.781h-5.228l-1.256,5.371h-5.474Z" transform="translate(-119.141 -28.874)" fill="#fff"/>
      <path id="Path_1203" data-name="Path 1203" d="M132.758,29.173h5.474l-3.566,15.375h-5.474Z" transform="translate(-117.156 -28.874)" fill="#fff"/>
      <path id="Path_1204" data-name="Path 1204" d="M138.521,29.315l.351-.047c1.758-.207,3.942-.345,5.147-.345a12.7,12.7,0,0,1,4.746.714,3.812,3.812,0,0,1,2.411,3.619,5.714,5.714,0,0,1-1.381,3.78,5.374,5.374,0,0,1-2.937,1.775l-.352.116a3.389,3.389,0,0,1,.277.23,36.263,36.263,0,0,1,2.787,5.44h-6.026c-.778-2.19-1-2.766-2.033-5.256L140.3,44.6H134.98Zm4.042,7.238c1.758,0,2.988-1.037,2.988-2.512,0-.784-.577-1.176-1.706-1.176a3.707,3.707,0,0,0-.854.092l-.829,3.551A2.148,2.148,0,0,0,142.563,36.552Z" transform="translate(-116.013 -28.923)" fill="#fff"/>
      <path id="Path_1205" data-name="Path 1205" d="M159.575,29.173h13.281l-.928,4.451h-3.942l-2.611,10.924H159.9l2.611-10.924h-4.271Z" transform="translate(-111.419 -28.874)" fill="#fff"/>
      <path id="Path_1206" data-name="Path 1206" d="M166.558,39.718a1.335,1.335,0,1,1,0,2.669,1.335,1.335,0,0,1,0-2.669Zm0,2.5a1.169,1.169,0,1,0-1.166-1.172A1.167,1.167,0,0,0,166.558,42.222Zm-.516-1.854c.067,0,.078-.01.212-.02s.19-.016.248-.016c.438,0,.655.171.655.5a.366.366,0,0,1-.259.382l-.02,0a.068.068,0,0,1,.026.026,3.88,3.88,0,0,1,.329.485h-.5c-.1-.192-.135-.243-.263-.46v.46h-.429Zm.48.641c.119,0,.186-.057.186-.165s-.062-.16-.181-.16a.18.18,0,0,0-.056.006V41A.152.152,0,0,0,166.522,41.009Z" transform="translate(-110.039 -26.791)" fill="#fff"/>
      <g id="Group_2232" data-name="Group 2232" transform="translate(34.094)">
        <path id="Path_1207" data-name="Path 1207" d="M147.612,44.207a17.2,17.2,0,0,0,4.794.714,8.408,8.408,0,0,0,5.173-1.5,5.72,5.72,0,0,0,2.56-4.356,3.412,3.412,0,0,0-1.255-2.652,11.711,11.711,0,0,0-2.612-1.521l-1.079-.507c-.352-.184-.528-.369-.528-.577,0-.553.7-.968,1.657-.968a10.9,10.9,0,0,1,3.19.739l1.122-4.161a13.562,13.562,0,0,0-3.584-.5c-4.469,0-7.908,2.443-7.908,5.6,0,1.66,1.1,2.836,3.867,4.127,1.305.6,1.532.76,1.532,1.176,0,.622-.678,1.014-1.783,1.014a12.214,12.214,0,0,1-3.942-.922h0Z" transform="translate(-147.612 -28.923)" fill="#fff"/>
      </g>
    </g>
    <g id="Group_2234" data-name="Group 2234" transform="translate(40.509 29.515)">
      <path id="Path_1208" data-name="Path 1208" d="M51.918,59.746,51.3,63,57.5,60.341a14.647,14.647,0,0,1-.944-2.583Z" transform="translate(-38.379 -23.82)" fill="#fff"/>
      <line id="Line_71" data-name="Line 71" transform="translate(13.539 35.926)" fill="#fff"/>
      <path id="Path_1209" data-name="Path 1209" d="M129.042,53.474v-.01l0,0L103.92,29.459l-8.45,8.8A41.325,41.325,0,0,0,82.32,35.824a33.292,33.292,0,0,0-16.7,4.777L53.84,29.435v-.012h-.013l-.007-.007,0,.008-4.213.441-9.1,49.8,4.233.442,0-.012,19.191-8.4c.031.028.06.059.09.085,4.567,4.028,11.422,6.593,19.087,6.593A31.12,31.12,0,0,0,97.4,75.039l7.715,7.409,23.922-24.916V53.48l0,0Zm-46.928-16.7A41.979,41.979,0,0,1,94.74,39.019l-.151.158-3.734,3.887-.013.014a24.409,24.409,0,0,0-7.727-1.227,22.544,22.544,0,0,0-12.459,3.521l-.049-.046-3.916-3.712-.348-.331A31,31,0,0,1,82.115,36.774Zm5.264,9.914L80.073,54.3l-6.417-6.082a23.827,23.827,0,0,1,9.459-1.893A24.989,24.989,0,0,1,87.379,46.689ZM44.934,79.051,53.69,30.266l12.5,11.847,3.917,3.712L73.1,48.662l7.1,6.773v3.091l3.021,2.9-9.436,4.293a17.088,17.088,0,0,1-5.434-3.558c-.032-.03-.059-.068-.092-.1l7.24-3.381L58.479,42.827l-.336-.338-.407,2.2-4.02,20.957L53.093,68.9l1.066-.455,0-.026,5.471-2.343a17.473,17.473,0,0,0,3.606,4.974ZM84.758,62.9l4.076,3.913a24.635,24.635,0,0,1-5.877.7,24.089,24.089,0,0,1-7.19-1.068c-.3-.093-.6-.2-.893-.3l9.034-4.062Zm-18-2.7c-.044-.065-.1-.127-.141-.194a10.086,10.086,0,0,1-1.275-2.96c-.026-.108-.038-.216-.061-.323a10.683,10.683,0,0,1,1.353-2.916L71.378,58.5Zm-9.107-2.29c0,.029.014.055.018.085-.01.114-.018.22-.018.3a30.78,30.78,0,0,0,1.033,5.186v0l-3.9,1.669,3.722-19.392,1.528,1.51a14.958,14.958,0,0,0-2.579,8.308A14.184,14.184,0,0,0,57.654,57.913ZM96.863,70.49a26.732,26.732,0,0,1-2.888,1.257A31.666,31.666,0,0,1,82.957,73.66a30.368,30.368,0,0,1-15.029-3.777,21.478,21.478,0,0,1-5.991-4.922,16.923,16.923,0,0,1-1.583-2.252,14.392,14.392,0,0,1-1.815-4.943,13.3,13.3,0,0,1-.186-2.178A13.994,13.994,0,0,1,60.6,48.055L64.591,52.1a9.817,9.817,0,0,0-.12,5.165,10.981,10.981,0,0,0,1.388,3.225A13.356,13.356,0,0,0,67.722,62.8a18.987,18.987,0,0,0,7.777,4.5,25.1,25.1,0,0,0,7.458,1.106,25.644,25.644,0,0,0,6.147-.74,23.6,23.6,0,0,0,3.244-1.065,18.128,18.128,0,0,0,5.983-3.945,11.722,11.722,0,0,0,3.113-5.405,10.029,10.029,0,0,0,.29-2.355,12.077,12.077,0,0,0-2.2-6.668l3.4-3.539a16.193,16.193,0,0,1,4.631,10.89,13.6,13.6,0,0,1-.184,2.178,15.861,15.861,0,0,1-4.919,8.829A23.21,23.21,0,0,1,96.863,70.49Zm.986-8.627-5.925-5.772,5.018-5.227a12.273,12.273,0,0,1,3.806,5.221,9.206,9.206,0,0,1-.176.963A10.765,10.765,0,0,1,97.849,61.863Zm10.436-4.136a14.372,14.372,0,0,0,.172-2.14,17.121,17.121,0,0,0-4.944-11.568l.81-.839,12.552,12.052L106.482,66.054a22.329,22.329,0,0,0,1.818-8C108.3,57.956,108.292,57.844,108.285,57.727ZM105.12,78.378l-5.1-4.9a20.511,20.511,0,0,0,5.009-4.774c.019-.026.035-.053.054-.078l12.407-12.885.37-.4,1.62-1.686L104.322,39.11l-3.408,3.546L97.16,46.569,94.6,49.236l-4.825,5.026,0,0-.418.436,1.407,1.347,6.53,6.367A17.532,17.532,0,0,1,92,65.779h0l-4.311-4.139-4.231-4.063-2.879-2.728,6.841-7.126,3.436-3.579,3.734-3.887,9.331-9.718L128.482,54.05Z" transform="translate(-40.509 -29.417)" fill="#fff"/>
    </g>
  </g>
</svg>
