<svg xmlns="http://www.w3.org/2000/svg" width="32.873" height="32.873" viewBox="0 0 32.873 32.873">
  <g id="Group_758" data-name="Group 758" transform="translate(1 1)">
    <g id="Group_576" data-name="Group 576" transform="translate(0)">
      <g id="Group_575" data-name="Group 575" transform="translate(0)">
        <path id="Path_1427" data-name="Path 1427" d="M15.436,0A15.436,15.436,0,1,1,0,15.436,15.436,15.436,0,0,1,15.436,0Z" fill="none" stroke="#fff" stroke-width="2"/>
      </g>
    </g>
    <g id="Group_579" data-name="Group 579" transform="translate(4.904 7.457)">
      <g id="Group_578" data-name="Group 578" transform="translate(0)">
        <g id="Group_577" data-name="Group 577">
          <path id="Path_92" data-name="Path 92" d="M1680.113,8722.171v1.579c0,1.685-.146,3.369-.154,3.438v.021a5.079,5.079,0,0,1-.923,2.4,3.241,3.241,0,0,1-2.238,1.069.578.578,0,0,0-.116.015h-.038c-2.785.2-6.993.232-7.032.232h-.015c-.215,0-5.254-.078-6.862-.232l-.047-.006c-.054-.009-.123-.016-.208-.022a3.477,3.477,0,0,1-2.346-1.056,4.842,4.842,0,0,1-.932-2.416v-.008c-.008-.068-.153-1.753-.153-3.437v-1.579c0-1.683.146-3.36.153-3.431l.008-.021a5.026,5.026,0,0,1,.915-2.4,3.344,3.344,0,0,1,2.262-1.1c.031,0,.069-.009.092-.009l.039-.007c1.407-.1,3.162-.153,4.57-.193s2.469-.037,2.492-.037h.008c.039,0,4.247.029,7.032.23l.031.007c.039,0,.07.009.108.009a3.412,3.412,0,0,1,2.27,1.069,4.867,4.867,0,0,1,.931,2.439v.014C1679.967,8718.811,1680.113,8720.488,1680.113,8722.171Zm-1.231,1.579v-1.579c0-1.583-.147-3.216-.154-3.315a3.689,3.689,0,0,0-.592-1.721h-.007a2.209,2.209,0,0,0-1.508-.687c-.038-.008-.077-.008-.108-.014-2.708-.193-6.785-.224-6.932-.224s-4.223.03-6.954.224c-.031.006-.062.006-.1.014a2.107,2.107,0,0,0-1.485.7,3.761,3.761,0,0,0-.607,1.717c-.016.145-.146,1.751-.146,3.306v1.579c0,1.584.139,3.208.146,3.322a3.6,3.6,0,0,0,.592,1.691l.015.01a2.3,2.3,0,0,0,1.577.662c.092.015.177.023.253.029,1.562.146,6.532.225,6.739.23.186-.006,4.232-.029,6.924-.23a.738.738,0,0,0,.131-.015,2.043,2.043,0,0,0,1.462-.677,3.942,3.942,0,0,0,.6-1.709C1678.744,8726.92,1678.882,8725.311,1678.882,8723.75Z" transform="translate(-1659.049 -8714.972)" fill="#fff"/>
          <path id="Path_93" data-name="Path 93" d="M1675.913,8723.732a.856.856,0,0,1,.439.754.844.844,0,0,1-.446.745l-4.654,2.5a.862.862,0,0,1-.408.109.911.911,0,0,1-.439-.125.845.845,0,0,1-.416-.738v-5.047a.849.849,0,0,1,.423-.73.832.832,0,0,1,.847-.016Zm-4.684,2.615,3.477-1.869-3.477-1.908Z" transform="translate(-1662.135 -8716.69)" fill="#fff"/>
          <path id="Path_94" data-name="Path 94" d="M1675.192,8725.065l-3.478,1.87v-3.779Z" transform="translate(-1662.621 -8717.279)" fill="#fff"/>
        </g>
      </g>
    </g>
  </g>
</svg>
