<svg xmlns="http://www.w3.org/2000/svg" width="32.873" height="32.873" viewBox="0 0 32.873 32.873">
  <g id="Group_755" data-name="Group 755" transform="translate(1 1)">
    <path id="Path_1426" data-name="Path 1426" d="M15.436,0A15.436,15.436,0,1,1,0,15.436,15.436,15.436,0,0,1,15.436,0Z" fill="none" stroke="#fff" stroke-width="2"/>
    <g id="Layer_2" data-name="Layer 2" transform="translate(6.229 7.958)">
      <g id="Layer_1-2" data-name="Layer 1-2" transform="translate(0 0)">
        <path id="Path_89" data-name="Path 89" d="M1488.711,8719.395c.011.165.011.328.011.491a10.743,10.743,0,0,1-16.533,9.045,8.344,8.344,0,0,0,.911.045,7.553,7.553,0,0,0,4.685-1.611,3.782,3.782,0,0,1-3.529-2.615,5.281,5.281,0,0,0,.713.057,4,4,0,0,0,.993-.129,3.777,3.777,0,0,1-3.026-3.705v-.045a3.816,3.816,0,0,0,1.706.478,3.778,3.778,0,0,1-1.168-5.046,10.722,10.722,0,0,0,7.782,3.948,4.29,4.29,0,0,1-.094-.862,3.777,3.777,0,0,1,6.532-2.583,7.433,7.433,0,0,0,2.395-.913,3.754,3.754,0,0,1-1.659,2.08,7.53,7.53,0,0,0,2.173-.584A8.076,8.076,0,0,1,1488.711,8719.395Z" transform="translate(-1472.189 -8715.668)" fill="#fff"/>
      </g>
    </g>
  </g>
</svg>
