<svg xmlns="http://www.w3.org/2000/svg" width="33.14" height="33.14" viewBox="0 0 33.14 33.14">
  <g id="Group_4103" data-name="Group 4103" transform="translate(-1101 -4317)">
    <g id="Group_4100" data-name="Group 4100" transform="translate(1102 4318)">
      <g id="Group_576" data-name="Group 576" transform="translate(0)">
        <g id="Group_575" data-name="Group 575">
          <ellipse id="Ellipse_2381" data-name="Ellipse 2381" cx="15.57" cy="15.57" rx="15.57" ry="15.57" fill="none" stroke="#fff" stroke-width="2"/>
        </g>
      </g>
    </g>
    <g id="Group_4101" data-name="Group 4101" transform="translate(1107.466 4323.466)">
      <path id="Path_1609" data-name="Path 1609" d="M-72.71,141.419a10.341,10.341,0,0,0-10.33,10.33,10.343,10.343,0,0,0,10.33,10.33,10.343,10.343,0,0,0,10.33-10.33A10.341,10.341,0,0,0-72.71,141.419ZM-82,151.748a9.212,9.212,0,0,1,.8-3.778l4.431,12.137A9.291,9.291,0,0,1-82,151.748Zm9.288,9.289a9.229,9.229,0,0,1-2.624-.38l2.786-8.1,2.854,7.822a1.389,1.389,0,0,0,.066.129,9.3,9.3,0,0,1-3.083.525Zm1.278-13.64h0c.558-.029,1.061-.087,1.061-.087a.385.385,0,0,0-.059-.767s-1.5.116-2.474.116c-.912,0-2.446-.116-2.446-.116a.385.385,0,0,0-.058.767s.474.059.974.087l1.445,3.965-2.032,6.094L-78.4,147.4c.559-.029,1.062-.087,1.062-.087a.385.385,0,0,0-.059-.767s-1.5.116-2.474.116c-.175,0-.38,0-.6-.012a9.281,9.281,0,0,1,7.76-4.186,9.274,9.274,0,0,1,6.273,2.436,1.152,1.152,0,0,0-.121-.008,1.607,1.607,0,0,0-1.558,1.649,4.353,4.353,0,0,0,.912,2.179,4.875,4.875,0,0,1,.767,2.562,11.142,11.142,0,0,1-.708,3l-.925,3.095Zm6.874-.105a9.251,9.251,0,0,1,1.137,4.457,9.276,9.276,0,0,1-4.619,8.026h0l2.836-8.2a8.794,8.794,0,0,0,.708-3.328,6.879,6.879,0,0,0-.062-.953Z" transform="translate(83.04 -141.419)" fill="#fff"/>
    </g>
  </g>
</svg>
